<svg width="315" height="52" viewBox="0 0 315 52" fill="currentColor"
  xmlns="http://www.w3.org/2000/svg">
  <path d="M4.69831 0H0V52H4.69831V0Z" fill="currentColor"/>
  <path d="M9.3967 0H7.04755V52H9.3967V0Z" fill="currentColor"/>
  <path d="M16.4441 0H14.0949V52H16.4441V0Z" fill="currentColor"/>
  <path d="M28.1898 0H25.8406V52H28.1898V0Z" fill="currentColor"/>
  <path d="M42.2847 0H37.5864V52H42.2847V0Z" fill="currentColor"/>
  <path d="M46.9831 0H44.6339V52H46.9831V0Z" fill="currentColor"/>
  <path d="M54.0304 0H51.6812V52H54.0304V0Z" fill="currentColor"/>
  <path d="M61.078 0H58.7288V52H61.078V0Z" fill="currentColor"/>
  <path d="M75.1729 0H70.4745V52H75.1729V0Z" fill="currentColor"/>
  <path d="M79.8712 0H77.522V52H79.8712V0Z" fill="currentColor"/>
  <path d="M93.9661 0H84.5695V52H93.9661V0Z" fill="currentColor"/>
  <path d="M101.014 0H98.6644V52H101.014V0Z" fill="currentColor"/>
  <path d="M105.712 0H103.363V52H105.712V0Z" fill="currentColor"/>
  <path d="M110.41 0H108.061V52H110.41V0Z" fill="currentColor"/>
  <path d="M124.505 0H115.109V52H124.505V0Z" fill="currentColor"/>
  <path d="M131.553 0H129.203V52H131.553V0Z" fill="currentColor"/>
  <path d="M138.6 0H136.251V52H138.6V0Z" fill="currentColor"/>
  <path d="M152.695 0H143.298V52H152.695V0Z" fill="currentColor"/>
  <path d="M157.393 0H155.044V52H157.393V0Z" fill="currentColor"/>
  <path d="M173.837 0H164.441V52H173.837V0Z" fill="currentColor"/>
  <path d="M178.536 0H176.186V52H178.536V0Z" fill="currentColor"/>
  <path d="M183.234 0H180.885V52H183.234V0Z" fill="currentColor"/>
  <path d="M190.281 0H185.583V52H190.281V0Z" fill="currentColor"/>
  <path d="M202.027 0H199.678V52H202.027V0Z" fill="currentColor"/>
  <path d="M209.075 0H206.726V52H209.075V0Z" fill="currentColor"/>
  <path d="M216.122 0H211.424V52H216.122V0Z" fill="currentColor"/>
  <path d="M223.169 0H220.82V52H223.169V0Z" fill="currentColor"/>
  <path d="M237.264 0H232.566V52H237.264V0Z" fill="currentColor"/>
  <path d="M249.01 0H246.661V52H249.01V0Z" fill="currentColor"/>
  <path d="M253.709 0H251.359V52H253.709V0Z" fill="currentColor"/>
  <path d="M263.105 0H258.407V52H263.105V0Z" fill="currentColor"/>
  <path d="M270.153 0H267.803V52H270.153V0Z" fill="currentColor"/>
  <path d="M279.549 0H277.2V52H279.549V0Z" fill="currentColor"/>
  <path d="M288.946 0H284.248V52H288.946V0Z" fill="currentColor"/>
  <path d="M303.041 0H295.993V52H303.041V0Z" fill="currentColor"/>
  <path d="M307.739 0H305.39V52H307.739V0Z" fill="currentColor"/>
  <path d="M314.787 0H310.088V52H314.787V0Z" fill="currentColor"/>
</svg>
