<?xml version="1.0" encoding="UTF-8"?>
<svg xmlns="http://www.w3.org/2000/svg" version="1.1" viewBox="0 0 500 500" fill="currentColor">
  <!-- Generator: Adobe Illustrator 28.7.1, SVG Export Plug-In . SVG Version: 1.2.0 Build 142)  -->
  <g>
    <g id="_图层_1" data-name="图层_1">
      <g>
        <path d="M73.2,87.8c-2.9,0-5.5,0-8,0-19.1,0-38.2,0-57.4,0-6,0-7.8,1.9-7.8,7.8,0,21.8,0,43.6,0,65.4,0,6.2,1.7,7.9,8.1,7.9,12.1,0,24.1,0,36.2,0,8.5,0,16.9,0,25.4,0,1.9,0,3.5,0,3.5,2.8.1,14,0,28-3.8,41.6-9.7,34.9-29.8,62.1-60.5,81.3-6.4,4-9.2,8.8-9,16.3.3,20.9.1,41.8.1,62.7,0,7.7,2.9,9.7,10.1,7.1,22.6-7.9,41.8-21.1,58.8-37.6,1.1-1.1,2.3-2,4.2-3.7v5.6c0,33.6,0,67.2,0,100.8,0,6,1.6,7.7,7.4,7.7,19.6,0,39.3,0,58.9,0,5.8,0,7.3-1.5,7.3-7.2,0-13.3,0-26.7,0-40,0-120.5,0-241,0-361.4,0-6.8-1.5-8.3-8.4-8.3-19.2,0-38.5,0-57.7,0-5.4,0-7.4,2-7.4,7.4,0,13,0,25.9,0,38.9,0,1.4,0,2.8,0,4.8ZM446.1,175.7c-10.8,0-21.6,0-32.3,0-6.4,0-7.4,1.1-8.9,7.1-2.4,9.7-4.5,19.5-7.8,28.9-26,72.7-75.3,122.3-147.9,148.7-20.6,7.5-42,11.3-63.8,12.7-4,.3-6.1,2.1-6.1,5.9,0,22.8,0,45.7,0,68.5,0,4,2.3,6.1,6.3,6,2,0,4.1-.5,6.1-.6,23.9-1.2,47.2-5.5,70.2-12.3,32-9.4,61.7-23.6,89.1-42.4,2.4-1.7,3.9-1.7,6.1.5,4.5,4.4,9.1,8.7,14.1,12.5,36.1,27.2,77.7,38.8,122.1,41.7,4.7.3,6.6-2,6.6-7.3,0-21.8,0-43.6,0-65.4,0-5.1-1.5-6.8-6.5-7.9-26.5-5.8-49.6-18.1-70-36-2.4-2.1-2.3-3.5-.4-5.9,16.3-20.9,29.8-43.6,40.4-67.9,10.8-24.8,18.3-50.5,22.5-77.2,1.3-7.8-.3-9.6-8.4-9.6-10.5,0-21,0-31.6,0ZM380.6,62.9c-.1-1.9-.3-3.5-.3-5,0-5,0-10,0-15-.1-4.2-2.1-6.2-6.2-6.2-22.6,0-45.2,0-67.7,0-4.1,0-6,2.2-6.1,6.3,0,4.9,0,9.7,0,14.6q0,5.3-5.1,5.3c-35.9,0-71.8,0-107.8,0-6.3,0-8,1.7-8,7.9,0,21.6,0,43.1,0,64.7,0,6.3,1.5,7.8,7.6,7.8,97.8,0,195.5,0,293.3,0,6.1,0,7.6-1.5,7.6-7.8,0-21.3,0-42.6,0-63.9,0-7.3-1.4-8.6-8.8-8.6-31.2,0-62.3,0-93.5,0h-4.8ZM250.4,229.7c-.5-.3-.9-.6-1.4-.9,0-1.4,0-2.8,0-4.2,0-13.9,0-27.7,0-41.6,0-5.3-1.9-7.2-7.1-7.2-18.6,0-37.2,0-55.8,0-5.1,0-6.7,1.7-6.7,6.7,0,49.8,0,99.6,0,149.4,0,5.4,2.3,7.5,7.6,6.9,16.6-1.8,32.9-4.9,48.6-10.7,68.4-25.3,112.7-73.1,133.1-143,1.9-6.6,0-9.3-6.8-9.3-22.7,0-45.4,0-68.1,0-4.6,0-6.7,2-8.7,5.8-4.8,9.2-9.7,18.4-15.7,26.8-5.5,7.7-12.6,14.3-19,21.4Z"/>
        <path d="M73.2,87.8c0-2,0-3.4,0-4.8,0-13,0-25.9,0-38.9,0-5.4,2-7.4,7.4-7.4,19.2,0,38.5,0,57.7,0,6.9,0,8.4,1.5,8.4,8.3,0,120.5,0,241,0,361.4,0,13.3,0,26.7,0,40,0,5.8-1.5,7.2-7.3,7.2-19.6,0-39.3,0-58.9,0-5.8,0-7.4-1.7-7.4-7.7,0-33.6,0-67.2,0-100.8v-5.6c-1.9,1.6-3.1,2.6-4.2,3.7-17,16.6-36.2,29.7-58.8,37.6-7.2,2.5-10.1.6-10.1-7.1,0-20.9.2-41.8-.1-62.7-.1-7.6,2.7-12.3,9-16.3,30.6-19.2,50.8-46.4,60.5-81.3,3.8-13.6,3.9-27.6,3.8-41.6,0-2.7-1.6-2.8-3.5-2.8-8.5,0-16.9,0-25.4,0-12.1,0-24.1,0-36.2,0-6.4,0-8-1.7-8.1-7.9,0-21.8,0-43.6,0-65.4,0-6,1.8-7.8,7.8-7.8,19.1,0,38.2,0,57.4,0,2.5,0,5.1,0,8,0Z"/>
        <path d="M446.1,175.7c10.5,0,21,0,31.6,0,8.1,0,9.7,1.7,8.4,9.6-4.3,26.7-11.7,52.4-22.5,77.2-10.6,24.3-24.1,47-40.4,67.9-1.9,2.4-2,3.8.4,5.9,20.3,17.9,43.5,30.2,70,36,5,1.1,6.5,2.7,6.5,7.9,0,21.8,0,43.6,0,65.4,0,5.3-1.9,7.6-6.6,7.3-44.5-2.9-86-14.4-122.1-41.7-5-3.8-9.6-8.1-14.1-12.5-2.2-2.2-3.7-2.2-6.1-.5-27.5,18.8-57.2,33-89.1,42.4-22.9,6.7-46.3,11-70.2,12.3-2,.1-4.1.5-6.1.6-4,.1-6.3-2-6.3-6,0-22.8,0-45.7,0-68.5,0-3.8,2-5.6,6.1-5.9,21.8-1.4,43.2-5.2,63.8-12.7,72.5-26.4,121.9-76,147.9-148.7,3.3-9.4,5.4-19.2,7.8-28.9,1.5-6,2.5-7.1,8.9-7.1,10.8,0,21.6,0,32.3,0Z"/>
        <path d="M380.6,62.9h4.8c31.2,0,62.3,0,93.5,0,7.4,0,8.8,1.4,8.8,8.6,0,21.3,0,42.6,0,63.9,0,6.2-1.5,7.8-7.6,7.8-97.8,0-195.5,0-293.3,0-6.1,0-7.6-1.5-7.6-7.8,0-21.6,0-43.1,0-64.7,0-6.2,1.7-7.9,8-7.9,35.9,0,71.8,0,107.8,0q5.1,0,5.1-5.3c0-4.9,0-9.8,0-14.6,0-4.1,2-6.3,6.1-6.3,22.6,0,45.2,0,67.7,0,4.1,0,6.1,2.1,6.2,6.2.2,5,0,10,0,15,0,1.5.2,3,.3,5Z"/>
        <path d="M250.4,229.7c6.4-7.1,13.4-13.7,19-21.4,6-8.4,10.8-17.6,15.7-26.8,2-3.9,4.2-5.9,8.7-5.8,22.7.2,45.4,0,68.1,0,6.8,0,8.7,2.6,6.8,9.3-20.4,70-64.7,117.7-133.1,143-15.7,5.8-32,8.9-48.6,10.7-5.3.6-7.6-1.5-7.6-6.9,0-49.8,0-99.6,0-149.4,0-5,1.6-6.7,6.7-6.7,18.6,0,37.2,0,55.8,0,5.3,0,7.1,1.9,7.1,7.2,0,13.9,0,27.7,0,41.6,0,1.4,0,2.8,0,4.2.5.3.9.6,1.4.9Z"/>
      </g>
    </g>
  </g>
</svg>