<!-- <svg xmlns="http://www.w3.org/2000/svg" fill="none" viewBox="0 0 82 30">
  <title>GSAP</title>
  <path fill="currentColor" d="M23.81 14.012v.013l-1.075 4.666c-.058.264-.322.457-.626.457H20.81a.218.218 0 0 0-.208.156c-1.198 4.064-2.82 6.857-4.962 8.534-1.822 1.428-4.068 2.094-7.069 2.094-2.696 0-4.514-.867-6.056-2.579-2.038-2.262-2.88-5.966-2.37-10.428C1.065 8.548 5.41.095 13.776.095c2.545-.022 4.543.763 5.933 2.33 1.47 1.658 2.216 4.154 2.22 7.422a.55.55 0 0 1-.549.536h-6.13a.42.42 0 0 1-.407-.41c-.05-2.26-.72-3.36-2.052-3.36-2.35 0-3.736 3.19-4.471 4.958-1.027 2.47-1.55 5.153-1.447 7.825.049 1.244.249 2.993 1.43 3.718 1.047.642 2.541.216 3.446-.495.904-.712 1.632-1.943 1.938-3.066.043-.156.046-.277.005-.331-.043-.056-.162-.069-.253-.069h-1.574a.572.572 0 0 1-.438-.202.42.42 0 0 1-.087-.362l1.076-4.674c.053-.239.27-.42.537-.452v-.012h10.33c.024 0 .049 0 .072.005.268.035.457.284.452.556h.002Z" style="opacity: 1;"></path>
  <g id="webflow" fill="currentColor" fill-rule="nonzero">
    <path d="M5.835 44.642c-.51 0-.965-.117-1.365-.353a2.366 2.366 0 0 1-.918-.964l-.106 1.188H2.67v-8.824h.976v3.565c.236-.345.543-.618.924-.818.38-.2.802-.3 1.265-.3.541 0 1.025.136 1.453.406.427.271.758.651.994 1.141.235.491.353 1.049.353 1.677 0 .635-.118 1.202-.353 1.7a2.772 2.772 0 0 1-.994 1.165 2.608 2.608 0 0 1-1.453.417Zm-.153-.847c.376 0 .711-.102 1.006-.306.294-.204.523-.492.688-.864.164-.373.247-.795.247-1.265a2.95 2.95 0 0 0-.247-1.235 1.99 1.99 0 0 0-.688-.842 1.77 1.77 0 0 0-1.018-.3c-.392 0-.741.098-1.047.295-.306.196-.545.47-.718.823a2.733 2.733 0 0 0-.259 1.212c0 .478.087.906.259 1.282.173.377.414.671.724.883.309.211.66.317 1.053.317ZM9.435 46.866v-.824h1c.306 0 .537-.049.694-.147a.89.89 0 0 0 .353-.453l.341-.929h-.235l-2.471-6.236h1.047l2.024 5.259 1.953-5.259h1l-2.8 7.542a1.495 1.495 0 0 1-.659.782c-.306.177-.722.265-1.247.265h-1ZM21.694 44.513h-1.106l-2.33-8.236h1.024l1.906 6.754 1.906-6.754h.964l1.93 6.777 1.906-6.777h1.023l-2.329 8.236h-1.106l-1.906-6.706-1.882 6.706ZM32.4 44.642c-.604 0-1.14-.137-1.606-.411a2.802 2.802 0 0 1-1.083-1.148c-.254-.49-.382-1.045-.382-1.664 0-.683.133-1.273.4-1.771a2.752 2.752 0 0 1 1.077-1.129 2.948 2.948 0 0 1 1.476-.383c.863 0 1.551.279 2.065.836.514.556.778 1.329.794 2.317v.271h-4.835c.031.674.233 1.216.605 1.623.373.408.869.612 1.489.612.439 0 .811-.108 1.117-.323.306-.216.522-.524.647-.924h.953c-.141.643-.453 1.153-.935 1.53-.482.376-1.076.564-1.782.564Zm1.717-3.894c-.086-.549-.29-.98-.611-1.294-.322-.314-.73-.471-1.224-.471s-.912.155-1.253.465c-.341.31-.563.743-.665 1.3h3.753ZM39.623 44.642c-.509 0-.964-.117-1.364-.353a2.366 2.366 0 0 1-.918-.964l-.106 1.188h-.776v-8.824h.976v3.565a2.51 2.51 0 0 1 .924-.818c.38-.2.802-.3 1.264-.3a2.66 2.66 0 0 1 1.453.406c.428.271.759.651.994 1.141.236.491.353 1.049.353 1.677 0 .635-.117 1.202-.353 1.7a2.758 2.758 0 0 1-.994 1.165 2.603 2.603 0 0 1-1.453.417Zm-.153-.847c.377 0 .712-.102 1.006-.306.294-.204.524-.492.689-.864.164-.373.247-.795.247-1.265a2.95 2.95 0 0 0-.247-1.235 1.991 1.991 0 0 0-.689-.842c-.294-.2-.633-.3-1.017-.3-.393 0-.742.098-1.047.295-.306.196-.546.47-.718.823a2.72 2.72 0 0 0-.259 1.212c0 .478.086.906.259 1.282a2.1 2.1 0 0 0 .723.883c.31.211.661.317 1.053.317ZM44.235 44.513v-5.412h-1.153v-.824h1.153v-.87c0-.557.151-.982.453-1.277.302-.294.743-.441 1.324-.441H47.4v.824h-1.388c-.259 0-.457.076-.594.229-.138.153-.206.375-.206.665v.87h2.023v.824h-2.023v5.412h-.977ZM48.329 35.689h.976v8.824h-.976zM53.682 44.642c-.651 0-1.206-.143-1.664-.429a2.736 2.736 0 0 1-1.042-1.177c-.235-.498-.352-1.064-.352-1.7 0-.674.135-1.253.405-1.735a2.719 2.719 0 0 1 1.1-1.094 3.248 3.248 0 0 1 1.553-.371c.644 0 1.195.141 1.653.424.459.282.808.667 1.047 1.153.24.486.359 1.027.359 1.623 0 .698-.131 1.296-.394 1.795a2.679 2.679 0 0 1-1.088 1.129c-.463.255-.988.382-1.577.382Zm0-.847c.432 0 .802-.11 1.112-.329.31-.22.545-.516.706-.888.161-.373.241-.787.241-1.242 0-.706-.188-1.274-.564-1.706-.377-.431-.875-.647-1.495-.647-.619 0-1.117.216-1.494.647-.376.432-.564 1-.564 1.706 0 .518.092.961.276 1.33.184.368.431.649.741.841.31.192.657.288 1.041.288ZM60.306 44.513h-1.082l-1.847-6.236h1l1.435 5.024 1.388-5.024h.847l1.388 5.001 1.424-5.001h1l-1.847 6.236h-1.071l-1.317-4.753-1.318 4.753Z"></path>
  </g>
</svg> -->
<svg xmlns="http://www.w3.org/2000/svg" fill="none" viewBox="0 0 82 30" style="translate: none; rotate: none; scale: none; transform: translate(0px, 0px);">
  <title>GSAP</title>
  <path fill="currentColor" d="M23.81 14.012v.013l-1.075 4.666c-.058.264-.322.457-.626.457H20.81a.218.218 0 0 0-.208.156c-1.198 4.064-2.82 6.857-4.962 8.534-1.822 1.428-4.068 2.094-7.069 2.094-2.696 0-4.514-.867-6.056-2.579-2.038-2.262-2.88-5.966-2.37-10.428C1.065 8.548 5.41.095 13.776.095c2.545-.022 4.543.763 5.933 2.33 1.47 1.658 2.216 4.154 2.22 7.422a.55.55 0 0 1-.549.536h-6.13a.42.42 0 0 1-.407-.41c-.05-2.26-.72-3.36-2.052-3.36-2.35 0-3.736 3.19-4.471 4.958-1.027 2.47-1.55 5.153-1.447 7.825.049 1.244.249 2.993 1.43 3.718 1.047.642 2.541.216 3.446-.495.904-.712 1.632-1.943 1.938-3.066.043-.156.046-.277.005-.331-.043-.056-.162-.069-.253-.069h-1.574a.572.572 0 0 1-.438-.202.42.42 0 0 1-.087-.362l1.076-4.674c.053-.239.27-.42.537-.452v-.012h10.33c.024 0 .049 0 .072.005.268.035.457.284.452.556h.002Z" style="opacity: 1;"></path>
  <path fill="currentColor" d="M41.595 8.65a.548.548 0 0 1-.548.53h-5.646c-.37 0-.679-.3-.679-.665 0-1.647-.57-2.449-1.736-2.449s-1.918.716-1.94 1.967c-.025 1.395.764 2.663 3.01 4.841 2.957 2.774 4.142 5.231 4.085 8.479C38.048 26.605 34.477 30 29.043 30c-2.775 0-4.895-.742-6.305-2.206-1.431-1.487-2.087-3.669-1.95-6.485a.548.548 0 0 1 .549-.53h5.84a.55.55 0 0 1 .422.208.48.48 0 0 1 .106.384c-.065 1.016.112 1.775.512 2.195.256.272.613.41 1.058.41 1.079 0 1.711-.762 1.735-2.09.02-1.148-.343-2.154-2.321-4.189-2.555-2.496-4.846-5.075-4.775-9.13.042-2.352.976-4.503 2.631-6.057C28.295.868 30.688 0 33.466 0c2.783.02 4.892.814 6.269 2.36 1.304 1.465 1.931 3.581 1.862 6.29h-.002Z" style="opacity: 1;"></path>
  <path fill="currentColor" d="m59.095 29.012.037-27.933a.525.525 0 0 0-.529-.533h-8.738c-.294 0-.423.253-.507.42L36.706 28.841v.005l-.005.007c-.14.343.126.71.497.71h6.108c.33 0 .549-.1.656-.308l1.213-2.915c.149-.389.177-.425.601-.425h5.836c.406 0 .414.008.408.405l-.131 2.71a.525.525 0 0 0 .528.533h6.171a.523.523 0 0 0 .403-.182.458.458 0 0 0 .104-.369Zm-10.81-9.326a1.67 1.67 0 0 1-.138-.005.147.147 0 0 1-.13-.184c.012-.04.029-.095.054-.162l4.376-10.828a2.99 2.99 0 0 1 .136-.313c.071-.146.157-.156.184-.048.023.09-.502 11.118-.502 11.118-.041.413-.06.43-.467.464l-3.509-.04h-.008l.003-.002Z" style="opacity: 1;"></path>
  <path fill="currentColor" d="M71.543.546h-4.639c-.245 0-.52.13-.584.422l-6.456 28.03a.423.423 0 0 0 .088.363.573.573 0 0 0 .437.202h5.798c.312 0 .525-.153.583-.418l.704-3.177c.05-.248-.036-.44-.258-.556a52.313 52.313 0 0 1-.312-.162l-1.005-.523-1-.522-.387-.201a.186.186 0 0 1-.103-.17.199.199 0 0 1 .2-.194l3.177.014c.95.005 1.901-.062 2.836-.234 6.58-1.215 10.95-6.485 11.076-13.656.108-6.12-3.308-9.221-10.15-9.221l-.005.003Zm-1.579 16.68h-.124c-.279 0-.328-.03-.336-.04-.005-.007 1.832-8.073 1.833-8.084.047-.233.045-.367-.099-.446-.184-.102-2.866-1.516-2.866-1.516a.189.189 0 0 1-.101-.172.197.197 0 0 1 .197-.192h4.241c1.32.04 2.056 1.221 2.021 3.238-.061 3.491-1.721 7.09-4.766 7.213Z" data-svg-origin="59.85385513305664 0.5430021286010742" transform="matrix(1,0,0,1,0,0)" style="translate: none; rotate: none; scale: none; transform-origin: 0px 0px; opacity: 1;"></path>
</svg>