<?xml version="1.0" encoding="UTF-8"?>
<svg xmlns="http://www.w3.org/2000/svg" version="1.1" viewBox="0 0 500 500" fill="currentColor">
  <!-- Generator: Adobe Illustrator 28.7.1, SVG Export Plug-In . SVG Version: 1.2.0 Build 142)  -->
  <g>
    <g id="_图层_1" data-name="图层_1">
      <path d="M421,466c-17-3.8-23.1-18.6-31.1-31.2-27.2-43-54.3-86-81.1-129.3-3.5-5.6-7.3-7.1-13.4-7.1-32.4.2-64.8.3-97.2,0-19.7-.2-31.4-17.7-24.4-35.6,3.9-9.8,13.4-15.6,25.9-15.7,33.5,0,67,.3,100.6-.2,19.5-.3,37.4-6.3,53.3-18.1,38.6-28.6,35.9-89.6,3.4-119.3-17-15.5-36.9-22.9-59.7-22.9-73.1,0-146.3,0-219.4,0-8.8,0-17.1-1.3-23.7-7.8-13.2-13-9.2-34.4,7.8-41.9,2.2-1,4.5-2,6.7-3h232.7c4.3.7,8.7,1.6,13,2,30.9,3.4,58.2,14.9,81,36.1,30.4,28.3,42,64,40.3,104.7-1.7,40.9-19.5,73-53.1,96.3-6.5,4.5-13.6,8.3-20.6,12.5.7,1.5,1.1,2.9,1.8,4,20.4,32.6,40.8,65.1,61.2,97.7,8.3,13.4,17,26.5,24.6,40.3,6.5,12,2.3,26.9-8.7,33.6-3.9,2.4-8.7,3.2-13.1,4.7h-6.6Z"/>
    </g>
  </g>
</svg>